<svg width="57" height="38" viewBox="0 0 57 38" fill="none" xmlns="http://www.w3.org/2000/svg">
<path d="M51.6184 16.7616V18.5158H52.2493C52.9149 18.5158 53.4365 18.2658 53.4365 17.5989C53.4365 17.1575 53.2213 16.7597 52.3824 16.7597C52.1198 16.7597 51.9776 16.7502 51.6184 16.7616ZM49.875 22.9582V15.0415C50.2999 15.0415 52.2493 15.0415 52.4681 15.0415C54.5489 15.0415 55.2892 16.1156 55.2892 17.5762C55.2892 19.0462 54.4176 19.6468 54.0036 19.8627L56.2083 22.9582H54.0948L52.2603 20.2132H51.6184V22.9582H49.875Z" fill="#FF4438"/>
<path d="M47.5 19.5521C47.5 21.9731 46.0432 22.9582 44.4356 22.9582C42.5069 22.9582 41.1667 21.7931 41.1667 19.4725V15.0415H42.8819V19.0879C42.8819 20.3212 43.2353 21.2608 44.4356 21.2608C45.4744 21.2608 45.7848 20.4576 45.7848 19.1902V15.0415H47.5V19.5521Z" fill="#FF4438"/>
<path d="M37.2083 38H0V0H37.2083V13.0015H35.4834V1.7616H1.72309V36.2384H35.4834V24.9136H37.2083V38Z" fill="#FF4438"/>
<path d="M29.5458 22.9582L26.1003 18.2074V22.9582H24.5417V15.0415H25.8709L29.3182 19.8131L29.3147 15.0415H30.8715L30.875 22.9582H29.5458Z" fill="#FF4438"/>
<path d="M33.25 15.0415H38.7917V16.7377H36.7845V22.9582H35.2556V16.7377H33.25V15.0415Z" fill="#FF4438"/>
<path d="M7.91666 15.0415H9.60039V18.4906L12.0097 15.0415H14.0298L11.263 18.6951L14.25 22.9582H12.1154L9.60039 19.191V22.9582H7.91666V15.0415Z" fill="#FF4438"/>
<path d="M18.6033 21.3186C19.877 21.3186 20.5378 20.2904 20.5378 18.9998C20.5378 17.5999 19.6854 16.6811 18.6033 16.6811C17.4932 16.6811 16.6705 17.5999 16.6705 18.9998C16.6705 20.3111 17.5312 21.3186 18.6033 21.3186ZM18.6033 15.0415C20.6435 15.0415 22.1667 16.5603 22.1667 18.9998C22.1667 21.3186 20.6435 22.9582 18.6033 22.9582C16.5648 22.9582 15.0417 21.4375 15.0417 18.9998C15.0417 16.7792 16.469 15.0415 18.6033 15.0415Z" fill="#FF4438"/>
</svg>
